# xmcd
#
# Track frame offsets:
#	182
#	11905
#	23177
#	38155
#	49207
#	59002
#	71867
#	84827
#	96330
#	107917
#	119467
#	136495
#	147702
#	161907
#	171300
#	186820
#	199420
#	209550
#	221697
#	231887
#	243102
#	254985
#	266540
#	279595
#
# Disc length: 3914 seconds
#
# Revision: 1
# Processed by: cddbd v1.5.1PL0 Copyright (c) Steve Scherf et al.
# Submitted via: audiograbber 1.83.01
#
DISCID=890f4818
DTITLE=Diverse Artiesten - Country and Verre Westen - CD2
DYEAR=1998
DGENRE=Western
TTITLE0=Patsy Cline - Crazy Dreams
TTITLE1=Conway Twitty - It's Only Make Believe
TTITLE2=Kenny Rogers - Crazy
TTITLE3=Roger Miller - King Of The Road
TTITLE4=George McCormick - Jambalaya
TTITLE5=Billie Jo Spears - What I've Got In Mind
TTITLE6=Merle Haggard - The Fighting Side Of Me
TTITLE7=Kendalls - Heaven's Just A Sin Away
TTITLE8=Patsy Cline - Walkin' After Midnight
TTITLE9=Bobby Sykes - Oh! Lonesome Me
TTITLE10=Kenny Rogers - You Decorated My Life
TTITLE11=Bobby Sykes - I Can't Stop Loving You
TTITLE12=Cattlemen - Red River Valley
TTITLE13=Cattlemen - The Yellow Rose Of Texas
TTITLE14=Cattlemen - Cool Water
TTITLE15=Cattlemen - Tumbling Tumbleweeds
TTITLE16=Cattlemen - The Streets Of Laredo
TTITLE17=Cattlemen - Ridin' Down The Canyon
TTITLE18=Cattlemen - Whoopee Ti Yo Yo
TTITLE19=Cattlemen - Take Me Back To My Boots And Saddle
TTITLE20=Cattlemen - Old Paint
TTITLE21=Cattlemen - In The Pines
TTITLE22=Cattlemen - Bury Me Not On The Lone Prairie
TTITLE23=Cattlemen - The Last Round-Up
EXTD=Muziek zonder Grenzen - Verenigde Staten CD2
EXTT0=
EXTT1=
EXTT2=
EXTT3=
EXTT4=
EXTT5=
EXTT6=
EXTT7=
EXTT8=
EXTT9=
EXTT10=
EXTT11=
EXTT12=
EXTT13=
EXTT14=
EXTT15=
EXTT16=
EXTT17=
EXTT18=
EXTT19=
EXTT20=
EXTT21=
EXTT22=
EXTT23=
PLAYORDER=
